<svg id="Layer_1" data-name="Layer 1" xmlns="http://www.w3.org/2000/svg" viewBox="0 0 36 36"><defs><style>.cls-1{fill:#bd202e;}.cls-2{fill:#fff;}</style></defs><rect class="cls-1" width="36" height="36" rx="2.99992"/><path class="cls-2" d="M29.29822,9.96671a12.68521,12.68521,0,0,0-7.198-2.67355l-.35992.4113a16.88033,16.88033,0,0,1,6.401,3.23911A21.36853,21.36853,0,0,0,20.4036,8.50141a21.74926,21.74926,0,0,0-5.19281.05141,2.53062,2.53062,0,0,0-.437.05141A20.14111,20.14111,0,0,0,8.9383,10.22377c-.95114.41129-1.51672.7198-1.51672.7198a16.86691,16.86691,0,0,1,6.73525-3.34194l-.2571-.30847A12.73881,12.73881,0,0,0,6.70182,9.96671,33.94079,33.94079,0,0,0,3,24.82531s2.15938,3.70178,7.84062,3.88174c0,0,.95114-1.1311,1.72236-2.108a8.035,8.035,0,0,1-4.49873-3.00769s.25711.17992.71981.437c.02573,0,.05141.02568.10283.05141.07714.05141.15423.0771.23137.12851a15.06173,15.06173,0,0,0,1.87659.874,19.57263,19.57263,0,0,0,3.77892,1.10542,18.00823,18.00823,0,0,0,6.65811.02568,18.43439,18.43439,0,0,0,3.7275-1.10537,14.71161,14.71161,0,0,0,2.95633-1.51671,8.15128,8.15128,0,0,1-4.653,3.03342c.77118.95114,1.69663,2.05656,1.69663,2.05656C30.84062,28.50141,33,24.79959,33,24.82531A33.94107,33.94107,0,0,0,29.29822,9.96671ZM13.20565,22.43456a2.73232,2.73232,0,0,1-2.62209-2.82778A2.71565,2.71565,0,0,1,13.20565,16.779a2.69935,2.69935,0,0,1,2.62213,2.82778A2.71568,2.71568,0,0,1,13.20565,22.43456Zm9.38306,0a2.73232,2.73232,0,0,1-2.62213-2.82778,2.62958,2.62958,0,1,1,5.24421,0A2.71564,2.71564,0,0,1,22.58871,22.43456Z"/></svg>