<svg id="Layer_1" data-name="Layer 1" xmlns="http://www.w3.org/2000/svg" viewBox="0 0 36 36"><defs><style>.cls-1{fill:#bd202e;}.cls-2{fill:#fff;fill-rule:evenodd;}</style></defs><rect class="cls-1" width="36" height="36" rx="2.99992"/><path class="cls-2" d="M17.999,3.3704a15.00143,15.00143,0,0,0-4.74037,29.2334c.75.13758,1.02379-.32551,1.02379-.723,0-.35608-.013-1.29939-.02026-2.55117-4.17249.90647-5.0529-2.01074-5.0529-2.01074a3.97217,3.97217,0,0,0-1.66543-2.19417c-1.36191-.93068.103-.91181.103-.91181a3.15084,3.15084,0,0,1,2.29758,1.54581A3.19372,3.19372,0,0,0,14.30989,27.005a3.205,3.205,0,0,1,.95232-2.0053c-3.33084-.37856-6.8325-1.66543-6.8325-7.41347a5.798,5.798,0,0,1,1.544-4.02506,5.39512,5.39512,0,0,1,.14706-3.96972s1.25943-.40333,4.12488,1.5377a14.21784,14.21784,0,0,1,7.51052,0c2.86371-1.941,4.12083-1.5377,4.12083-1.5377a5.38761,5.38761,0,0,1,.14927,3.96972,5.7882,5.7882,0,0,1,1.54185,4.02506c0,5.76241-3.5071,7.0304-6.84872,7.40177a3.58,3.58,0,0,1,1.01835,2.77779c0,2.00531-.01841,3.62312-.01841,4.11494,0,.40112.27017.8678,1.03143.72129A15.00223,15.00223,0,0,0,17.999,3.3704Z"/></svg>