<svg id="Layer_1" data-name="Layer 1" xmlns="http://www.w3.org/2000/svg" viewBox="0 0 36 36"><defs><style>.cls-1{fill:#bd202e;}.cls-2{fill:#fff;}</style></defs><rect class="cls-1" width="36" height="36" rx="2.99992"/><path class="cls-2" d="M6.55742,10.95017a1.16193,1.16193,0,0,0-.37815-.98011L3.37815,6.59566V6.0916h8.69748l6.72269,14.74373L24.70868,6.0916H33v.50406L30.605,8.89193a.7.7,0,0,0-.26611.67208V26.436a.7.7,0,0,0,.26611.67208L32.944,29.40434v.50406H21.17927v-.50406l2.423-2.35228c.2381-.238.2381-.308.2381-.67208V12.74238l-6.7367,17.11h-.91036l-7.84314-17.11V24.20973a1.58192,1.58192,0,0,0,.43417,1.31615l3.15126,3.82245v.50406H3v-.50406l3.15126-3.82245a1.52586,1.52586,0,0,0,.40616-1.31615Z"/></svg>