<svg id="Layer_1" data-name="Layer 1" xmlns="http://www.w3.org/2000/svg" viewBox="0 0 36 36"><defs><style>.cls-1{fill:#bd202e;}.cls-2{fill:#fff;}</style></defs><rect class="cls-1" width="36" height="36" rx="2.99992"/><path class="cls-2" d="M24.80172,19.93966a.19522.19522,0,0,0-.20689-.02587l-.181.07759a6.3662,6.3662,0,0,1-2.84482.64655c-.05173,0-.07759.02586-.07759.05173a.99851.99851,0,0,1-.98276.80172H18.49138v-1.681h.02586c.12931.02587.23276.02587.36207.05173a2.42979,2.42979,0,0,1,1.44828.69827h0l.02586.02586a.07865.07865,0,0,0,.10345,0,.35691.35691,0,0,1,.10345-.07758c.31034-.2069,1.03448-.64655,1.03448-2.97414a5.478,5.478,0,0,0-2.01724-4.08621h0l-1.06035-.07758h-.02586v-.67241a.76137.76137,0,0,0,.36207-.64656.72459.72459,0,1,0-1.44828,0,.69644.69644,0,0,0,.36207.62069v.569l-1.52586-.15517c-.07759,0-.12931.07758-.07759.12931a7.38442,7.38442,0,0,1,1.00862,3.64655,7.25968,7.25968,0,0,1-.36206,2.97414.04848.04848,0,0,0,0,.07758h0a.095.095,0,0,0,.07758.02587c.181-.02587.49138-.07759.87931-.10345v1.681h-1.681a1.027,1.027,0,0,1-1.00862-1.00862v-.41379A.06858.06858,0,0,0,15,20.01724H11.87069a.08258.08258,0,0,0-.07759.07759v.23276a5.99041,5.99041,0,0,0,.90518,3.15517.35.35,0,0,0,.43965.15517l.33621-.15517a.98685.98685,0,0,1,.85345,0l.36207.15517a.98683.98683,0,0,0,.85344,0l.36207-.15517a.98729.98729,0,0,1,.85345,0l.36207.15517a.98729.98729,0,0,0,.85345,0l.36207-.15517a.98729.98729,0,0,1,.85345,0l.36206.15517a.98729.98729,0,0,0,.85345,0l.36207-.15517a.98729.98729,0,0,1,.85345,0l.36207.15517a.49564.49564,0,0,0,.62069-.25862,5.95877,5.95877,0,0,0,.51724-1.08621A3.36807,3.36807,0,0,1,24.72414,20.25a.17315.17315,0,0,0,.10345-.181C24.87931,20.0431,24.85345,19.96552,24.80172,19.93966Zm-11.53448-.569h2.94828a.06857.06857,0,0,0,.07758-.07759V16.08621c0-.02587-.02586-.05173-.05172-.07759l-1.44828-.67241c-.02586-.02586-.07758,0-.10345.05172l-1.5,3.85345A.09048.09048,0,0,0,13.26724,19.37069ZM18,3A15,15,0,1,0,33,18,15.01078,15.01078,0,0,0,18,3Zm-.05172,25.91379a10.83624,10.83624,0,1,1,10.81034-10.8362A10.81111,10.81111,0,0,1,17.94828,28.91379Zm6.64655-9-.181.07759a6.3662,6.3662,0,0,1-2.84482.64655c-.05173,0-.07759.02586-.07759.05173a.99851.99851,0,0,1-.98276.80172H18.49138v-1.681h.02586c.12931.02587.23276.02587.36207.05173a2.42979,2.42979,0,0,1,1.44828.69827h0l.02586.02586a.07865.07865,0,0,0,.10345,0,.35691.35691,0,0,1,.10345-.07758c.31034-.2069,1.03448-.64655,1.03448-2.97414a5.478,5.478,0,0,0-2.01724-4.08621h0l-1.06035-.07758h-.02586v-.67241a.76137.76137,0,0,0,.36207-.64656.72459.72459,0,1,0-1.44828,0,.69644.69644,0,0,0,.36207.62069v.569l-1.52586-.15517c-.07759,0-.12931.07758-.07759.12931a7.38442,7.38442,0,0,1,1.00862,3.64655,7.25968,7.25968,0,0,1-.36206,2.97414.04848.04848,0,0,0,0,.07758h0a.095.095,0,0,0,.07758.02587c.181-.02587.49138-.07759.87931-.10345v1.681h-1.681a1.027,1.027,0,0,1-1.00862-1.00862v-.41379A.06858.06858,0,0,0,15,20.01724H11.87069a.08258.08258,0,0,0-.07759.07759v.23276a5.99041,5.99041,0,0,0,.90518,3.15517.35.35,0,0,0,.43965.15517l.33621-.15517a.98685.98685,0,0,1,.85345,0l.36207.15517a.98683.98683,0,0,0,.85344,0l.36207-.15517a.98729.98729,0,0,1,.85345,0l.36207.15517a.98729.98729,0,0,0,.85345,0l.36207-.15517a.98729.98729,0,0,1,.85345,0l.36206.15517a.98729.98729,0,0,0,.85345,0l.36207-.15517a.98729.98729,0,0,1,.85345,0l.36207.15517a.49564.49564,0,0,0,.62069-.25862,5.95877,5.95877,0,0,0,.51724-1.08621A3.36807,3.36807,0,0,1,24.72414,20.25a.17315.17315,0,0,0,.10345-.181.18434.18434,0,0,0-.07759-.15518A.27312.27312,0,0,0,24.59483,19.91379Zm-11.32759-.5431h2.94828a.06857.06857,0,0,0,.07758-.07759V16.08621c0-.02587-.02586-.05173-.05172-.07759l-1.44828-.67241c-.02586-.02586-.07758,0-.10345.05172l-1.5,3.85345A.09048.09048,0,0,0,13.26724,19.37069Z"/></svg>