<svg id="Layer_1" data-name="Layer 1" xmlns="http://www.w3.org/2000/svg" viewBox="0 0 36 36"><defs><style>.cls-1{fill:#bd202e;}.cls-2{fill:#fff;}</style></defs><rect class="cls-1" width="36" height="36" rx="2.99992"/><path class="cls-2" d="M33,8.69582a12.303,12.303,0,0,1-3.535.96915,6.17353,6.17353,0,0,0,2.70615-3.40518A12.32152,12.32152,0,0,1,28.2627,7.75334a6.1606,6.1606,0,0,0-10.48806,5.6138A17.4735,17.4735,0,0,1,5.08857,6.93634a6.16151,6.16151,0,0,0,1.90475,8.21725,6.13055,6.13055,0,0,1-2.78775-.76984c-.00059.02571-.00059.0514-.00059.07741a6.1588,6.1588,0,0,0,4.93719,6.03516,6.16749,6.16749,0,0,1-2.77954.10547,6.16089,6.16089,0,0,0,5.74957,4.27426,12.34861,12.34861,0,0,1-7.644,2.63481A12.48731,12.48731,0,0,1,3,27.42473a17.42069,17.42069,0,0,0,9.43483,2.76548c11.321,0,17.51184-9.37866,17.51184-17.51205q0-.40023-.01786-.79629A12.50557,12.50557,0,0,0,33,8.69582Z"/></svg>